<svg id="Capa_1" data-name="Capa 1" xmlns="http://www.w3.org/2000/svg" xmlns:xlink="http://www.w3.org/1999/xlink" viewBox="0 0 1440 1024"><defs><style>.cls-1,.cls-13{fill:none;}.cls-2{fill:#fff;}.cls-3{fill:#9533ff;}.cls-4{opacity:0.07;fill:url(#Motivo_nuevo_2);}.cls-4,.cls-6,.cls-7,.cls-8,.cls-9{isolation:isolate;}.cls-5{clip-path:url(#clip-path);}.cls-6,.cls-7,.cls-8,.cls-9{opacity:0.2;}.cls-6{fill:url(#Degradado_sin_nombre_6);}.cls-7{fill:url(#Degradado_sin_nombre_6-2);}.cls-8{fill:url(#Degradado_sin_nombre_6-3);}.cls-9{fill:url(#Degradado_sin_nombre_6-4);}.cls-10{fill:#a714ff;}.cls-11{fill:#9d11ff;}.cls-12{fill:#9115ff;}.cls-13{stroke:#d8d8d8;stroke-miterlimit:10;stroke-width:1.55px;}</style><pattern id="Motivo_nuevo_2" data-name="Motivo nuevo 2" width="100" height="100" patternTransform="translate(34.5 1523)" patternUnits="userSpaceOnUse" viewBox="0 0 100 100"><rect class="cls-1" width="100" height="100"/><rect class="cls-1" width="100" height="100"/><rect class="cls-1" width="100" height="100"/><rect class="cls-2" x="68.19" y="8.52" width="15.72" height="36" rx="7.08"/><rect class="cls-2" x="68.19" y="55.08" width="15.72" height="36" rx="7.08"/><rect class="cls-2" x="16.09" y="8.92" width="15.72" height="36" rx="7.08"/><rect class="cls-2" x="16.09" y="55.47" width="15.72" height="36" rx="7.08"/><rect class="cls-2" x="42.14" y="31.8" width="15.72" height="36" rx="7.08"/></pattern><clipPath id="clip-path"><rect class="cls-1" y="-13.59" width="1440" height="1051.17"/></clipPath><linearGradient id="Degradado_sin_nombre_6" x1="101.58" y1="261.94" x2="1081.89" y2="261.94" gradientTransform="matrix(1, 0, 0, -1, 324, 1230)" gradientUnits="userSpaceOnUse"><stop offset="0" stop-color="#d1d5de"/><stop offset="1" stop-color="#dbdbdb"/></linearGradient><linearGradient id="Degradado_sin_nombre_6-2" x1="-761.72" y1="-8.19" x2="218.59" y2="-8.19" xlink:href="#Degradado_sin_nombre_6"/><linearGradient id="Degradado_sin_nombre_6-3" x1="428.61" y1="1426.01" x2="1408.89" y2="1426.01" xlink:href="#Degradado_sin_nombre_6"/><linearGradient id="Degradado_sin_nombre_6-4" x1="-323.99" y1="1043.32" x2="627.97" y2="1043.32" xlink:href="#Degradado_sin_nombre_6"/></defs><title>background web_Mesa de trabajo 1</title><rect class="cls-3" width="1440" height="1024"/><rect class="cls-4" y="0.61" width="1440" height="1023.39"/><g class="cls-5"><rect class="cls-3" y="-13.59" width="1440" height="1051.17"/><path class="cls-6" d="M1310.37,1132.82c-14.47-45.41-10.5-95.36-2.85-142.75s18.82-94.59,18.23-142.75c-1-78.6-35.36-156.06-91.57-205s-133.08-68.24-203-50.43C987,603.16,945.4,628.34,900,630.39c-46.57,2.1-90.83-20.44-136.68-29.65C654.5,578.85,537.81,638.84,476.89,740S410.2,977,454.78,1087.87s136,196,240.64,235.41,221.14,34.83,326.15-3.49c51.48-18.8,100.51-45.41,152.73-61.6s109.87-21.27,159.5,2.78l72.09-41.68C1362,1218,1324.83,1178.27,1310.37,1132.82Z"/><path class="cls-7" d="M447,1403c-14.47-45.4-10.49-95.36-2.84-142.75s18.82-94.59,18.23-142.74c-1-78.61-35.36-156.07-91.56-205s-133.09-68.24-203-50.43c-44.22,11.26-85.79,36.45-131.15,38.5-46.56,2.13-90.81-20.44-136.66-29.65C-208.8,849-325.5,909-386.41,1010.16s-66.7,236.91-22.12,347.84,136,196,240.65,235.41,221.13,34.83,326.15-3.5c51.48-18.8,100.51-45.4,152.72-61.59s109.88-21.27,159.51,2.78l72.09-41.68C498.64,1488.14,461.52,1448.42,447,1403Z"/><path class="cls-8" d="M1637.38-31.26c-14.46-45.44-10.48-95.35-2.84-142.75s18.83-94.58,18.24-142.74c-1-78.6-35.42-156.07-91.57-205s-133.09-68.24-203-50.43c-44.22,11.27-85.78,36.45-131.14,38.5-46.58,2.1-90.84-20.44-136.69-29.65C981.54-585.22,864.84-525.24,803.92-424S737.22-187.12,781.81-76.2s136,196,240.62,235.4,221.14,34.83,326.15-3.49c51.49-18.8,100.51-45.41,152.72-61.6s109.88-21.27,159.51,2.78l72.08-41.68C1689,53.93,1651.83,14.19,1637.38-31.26Z"/><path class="cls-9" d="M952-13.58c-8.15,53-27.76,103.84-57.87,146.31-59.44,83.76-158,132.35-254.68,125.51-10.27-.71-20.62-2-31-3.53-54.3-8-109.64-22.49-158.34,2.34-41.36,21.08-67.8,66.32-105.13,95-48.82,37.55-114.54,43.69-171.34,23.64s-104.88-64-140-116.81c-12.16-18.25-22.9-37.59-33.56-57V-13.58Z"/><path class="cls-10" d="M1169.73-13.58a128.75,128.75,0,0,1-41.52,28.75c-28,11.88-59.67,14.19-85.13,31.68-33.54,23.07-49.13,67.4-57.58,109.76s-12.27,86.91-31.33,124.92c-39.52,78.86-137.77,105.94-215.66,77.4-51.86-19.07-95.17-57.45-130.1-104.2a514,514,0,0,1-46.2-75.28C532.19,120,510.16,54.63,469,3.89a201.3,201.3,0,0,0-16-17.47Z"/><path class="cls-11" d="M1440,503.19v534.42H737.62a364.8,364.8,0,0,1,13.18-66.53C772.69,897.65,820.2,833.34,880.47,794c31.84-20.81,67.24-34.68,104.3-39.2,48.25-5.9,102.64,1.22,139.83-32.93,22.37-20.57,33.24-52,47.17-80.06,39.74-80,114.49-141.2,197.42-147.63A180.35,180.35,0,0,1,1440,503.19Z"/><path class="cls-12" d="M1242.74,1037.61h-933a354.12,354.12,0,0,1,19-84.19c22.5-62.9,67.5-122.86,128.58-132.42,26.34-4.11,52.22,1.48,77.28,11.65,35.89,14.51,76.23,2.73,100.76-29.41a166.26,166.26,0,0,1,64.9-51.66c46.54-20.2,101.57-15.25,144.47,12.93,12.74,8.37,24.41,18.61,35.68,29.51,32.07,30.94,60.88,67.15,101.26,80.59,42,14,87.88-.05,130.91,9.36,63.06,13.82,109.42,76.82,127.74,144.33Q1241.65,1032.9,1242.74,1037.61Z"/><ellipse class="cls-10" cx="375.18" cy="313.96" rx="65.43" ry="71.65"/><ellipse class="cls-11" cx="1147.24" cy="530.9" rx="22.46" ry="24.59"/><path class="cls-13" d="M170.3-39.14c79.78-.12,158.9,40.13,210.3,107,44.57,58,67.53,132,105.76,195.19S589.16,381.6,657.19,367.72C703.91,358.2,741,317.4,763,271.24s31.49-97.86,43.24-148.3S833,21.35,863.4-18.63c38.58-50.64,101.24-78,161.06-70.28"/><path class="cls-13" d="M197-42.34C271.84-42.44,346-4.71,394.16,58c41.79,54.35,63.31,123.76,99.15,183s96.36,111.11,160.18,98.1c43.78-8.94,78.6-47.18,99.18-90.42s29.52-91.75,40.54-139,25-95.23,53.56-132.68c36.15-47.48,94.88-73.11,151-65.87"/><path class="cls-13" d="M223.76-45.53c69.81-.09,139,35.11,184,93.6,39,50.71,59.07,115.5,92.52,170.75s89.93,103.73,149.44,91.59c40.87-8.33,73.36-44,92.58-84.39s27.54-85.65,37.82-129.75,23.33-88.91,50-123.83C863.86-71.86,918.67-95.77,971-89"/><path class="cls-13" d="M250.48-48.73c64.79-.08,129.08,32.61,170.83,86.9,36.19,47.1,54.84,107.24,85.89,158.55S590.7,293,646,281.75c37.94-7.74,68.11-40.87,85.95-78.34S757.48,123.88,767,82.93,788.72.41,813.45-32c31.34-41.14,82.23-63.37,130.82-57.07"/><path class="cls-13" d="M277.22-51.92C337-52,396.34-21.82,434.87,28.29c33.41,43.46,50.62,99,79.28,146.32s77.06,88.91,128.07,78.51c35-7.14,62.85-37.72,79.33-72.3S745.14,107.41,754,69.62,774-6.54,796.8-36.49c28.92-38,75.9-58.45,120.74-52.68"/><path class="cls-13" d="M587.54,1190.09c-13.21-52.77-22.84-110.27-4.38-161.11,24.19-66.62,91.29-103.92,156.29-112.46s130.44,5.58,195.73,11,135.19.73,189-40.11c74.61-56.64,99.1-167,166.44-233.71,56.15-55.62,140.89-74,212.13-45.9"/><path class="cls-13" d="M637,1190.09c-12.49-49.91-21.6-104.31-4.14-152.41,22.87-63,86.38-98.3,147.84-106.39s123.4,5.28,185.16,10.4,127.84.69,178.81-37.93c70.59-53.59,93.76-158,157.45-221.09,53.12-52.61,133.29-70,200.67-43.43"/><path class="cls-13" d="M686.42,1190.09c-11.78-47.07-20.37-98.37-3.91-143.71,21.6-59.42,81.43-92.69,139.41-100.31s116.35,5,174.57,9.82,120.59.65,168.59-35.77c66.51-50.52,88.39-149,148.46-208.46,50.1-49.6,125.67-66,189.17-40.94"/><path class="cls-13" d="M735.86,1190.09c-11.07-44.22-19.13-92.4-3.67-135,20.26-55.8,76.5-87.07,131-94.23s109.31,4.67,164,9.23,113.28.61,158.37-33.61c62.52-47.46,83-140,139.47-195.79,47-46.6,118.06-62,177.75-38.47"/><path class="cls-13" d="M785.31,1190.09c-10.37-41.36-17.91-86.44-3.46-126.3,19-52.21,71.57-81.46,122.52-88.16s102.26,4.37,153.43,8.63,106,.58,148.16-31.44c58.49-44.4,77.7-130.92,130.44-183.21,44-43.59,110.45-58,166.3-35.94"/><path class="cls-13" d="M1105.6-406.43c4.87,37.83,35.33,66.49,68,79.89s68.24,15.05,102.79,21,70.24,17.66,93.85,45.84c42,50.13,29.69,128.06,36.28,195.72,9.93,102.36,73,196.52,159.27,237.56"/><path class="cls-13" d="M1087.62-389.33c4.87,37.83,35.33,66.49,68,79.89s68.24,15,102.8,21,70.24,17.66,93.84,45.84c42,50.13,29.69,128.06,36.28,195.72,9.93,102.36,73.06,196.52,159.28,237.55"/><path class="cls-13" d="M1069.64-372.24c4.87,37.83,35.33,66.49,68,79.89s68.24,15.05,102.79,21,70.24,17.66,93.85,45.84c42,50.13,29.7,128.06,36.28,195.71,9.92,102.37,73.05,196.52,159.27,237.56"/><path class="cls-13" d="M1051.71-355.15c4.86,37.84,35.33,66.5,68,79.89s68.25,15.05,102.8,21,70.24,17.65,93.85,45.83c42,50.13,29.69,128,36.28,195.71,9.92,102.37,73,196.52,159.26,237.57"/></g></svg>