<svg id="Capa_1" data-name="Capa 1" xmlns="http://www.w3.org/2000/svg" xmlns:xlink="http://www.w3.org/1999/xlink" viewBox="0 0 1080 1080"><defs><style>.cls-1,.cls-9{fill:none;}.cls-2{clip-path:url(#clip-path);}.cls-3,.cls-4,.cls-5,.cls-6{opacity:0.2;isolation:isolate;}.cls-3{fill:url(#Degradado_sin_nombre_2);}.cls-4{fill:url(#Degradado_sin_nombre_3);}.cls-5{fill:url(#Degradado_sin_nombre_4);}.cls-6{fill:url(#Degradado_sin_nombre_7);}.cls-7{fill:#898888;}.cls-8{opacity:0.57;fill:url(#Degradado_sin_nombre_6);}.cls-9{stroke:#d8d8d8;stroke-miterlimit:10;}</style><clipPath id="clip-path"><rect class="cls-1" x="-293.5" y="-15.67" width="1667" height="1111.33"/></clipPath><linearGradient id="Degradado_sin_nombre_2" x1="199.17" y1="57.84" x2="1334.01" y2="57.84" gradientTransform="matrix(1, 0, 0, -1, 0, 1080)" gradientUnits="userSpaceOnUse"><stop offset="0" stop-color="#d1d5de"/><stop offset="1" stop-color="#dbdbdb"/></linearGradient><linearGradient id="Degradado_sin_nombre_3" x1="-800.22" y1="-227.75" x2="334.62" y2="-227.75" xlink:href="#Degradado_sin_nombre_2"/><linearGradient id="Degradado_sin_nombre_4" x1="577.75" y1="1288.54" x2="1712.56" y2="1288.54" xlink:href="#Degradado_sin_nombre_2"/><linearGradient id="Degradado_sin_nombre_7" x1="-293.49" y1="196.06" x2="808.54" y2="196.06" gradientUnits="userSpaceOnUse"><stop offset="0" stop-color="#fff"/><stop offset="1"/></linearGradient><linearGradient id="Degradado_sin_nombre_6" x1="65.08" y1="142.02" x2="1145.14" y2="142.02" xlink:href="#Degradado_sin_nombre_2"/></defs><title>background figuras negro</title><rect width="1080" height="1080"/><g class="cls-2"><rect class="cls-1" x="-293.5" y="-15.67" width="1667" height="1111.33"/><path class="cls-3" d="M1223.43,1196.34c-16.75-48-12.15-100.81-3.29-150.92s21.78-100,21.1-150.91c-1.11-83.1-40.94-165-106-216.74s-154.06-72.14-235-53.31c-51.19,11.91-99.31,38.53-151.83,40.7-53.91,2.22-105.15-21.61-158.23-31.35-126-23.14-261.09,40.28-331.61,147.26s-77.21,250.48-25.6,367.75,157.41,207.23,278.58,248.88,256,36.83,377.56-3.69c59.6-19.87,116.35-48,176.8-65.12s127.2-22.49,184.65,2.94l83.45-44.07C1283.15,1286.4,1240.18,1244.39,1223.43,1196.34Z"/><path class="cls-4" d="M224,1481.93c-16.75-48-12.14-100.81-3.29-150.92s21.79-100,21.11-150.91c-1.12-83.1-40.94-165-106-216.74s-154.07-72.14-235-53.31c-51.19,11.9-99.31,38.53-151.82,40.7-53.9,2.25-105.13-21.61-158.21-31.35-126-23.14-261.1,40.28-331.61,147.26s-77.22,250.47-25.61,367.75S-609,1641.64-487.85,1683.29s256,36.83,377.57-3.7c59.6-19.87,116.35-48,176.79-65.11s127.21-22.49,184.66,2.94l83.45-44.07C283.75,1572,240.77,1530,224,1481.93Z"/><path class="cls-5" d="M1602-34.35c-16.75-48.05-12.14-100.81-3.29-150.92s21.79-100,21.11-150.91c-1.12-83.1-41-165-106-216.74s-154.07-72.14-235-53.31c-51.19,11.91-99.31,38.53-151.82,40.7-53.92,2.22-105.16-21.61-158.23-31.35-126-23.14-261.1,40.28-331.62,147.26s-77.21,250.48-25.6,367.75S768.93,125.36,890.1,167s256,36.83,377.57-3.69c59.6-19.87,116.35-48,176.79-65.12s127.21-22.49,184.66,2.94l83.44-44.07C1661.7,55.71,1618.72,13.7,1602-34.35Z"/><path class="cls-6" d="M808.54-15.66c-9.44,56-32.14,109.78-67,154.68-68.81,88.55-182.9,139.92-294.82,132.69-11.89-.75-23.87-2.11-35.89-3.73-62.86-8.42-126.92-23.78-183.3,2.47-47.88,22.29-78.49,70.12-121.7,100.46-56.52,39.7-132.6,46.19-198.35,25s-121.42-67.68-162.12-123.5c-14.07-19.29-26.51-39.74-38.85-60.25V-15.66Z"/><path class="cls-7" d="M1060.62-15.66a150,150,0,0,1-48.06,30.39c-32.47,12.56-69.08,15-98.55,33.49-38.83,24.39-56.88,71.26-66.66,116.05s-14.2,91.88-36.27,132.07c-45.75,83.37-159.48,112-249.65,81.82C501.39,358,451.25,317.43,410.82,268a537.5,537.5,0,0,1-53.48-79.59c-34.76-62.82-60.26-132-107.93-185.6a219.82,219.82,0,0,0-18.54-18.47Z"/><path class="cls-7" d="M1373.5,530.68v565H560.4a356.8,356.8,0,0,1,15.25-70.33C601,947.71,656,879.72,725.77,838.12c36.85-22,77.84-36.66,120.74-41.44,55.85-6.24,118.82,1.29,161.87-34.82,25.9-21.74,38.48-54.93,54.61-84.64,46-84.55,132.54-149.28,228.54-156.08A227.57,227.57,0,0,1,1373.5,530.68Z"/><path class="cls-8" d="M1145.14,1095.68H65.08a346.65,346.65,0,0,1,22-89c26.05-66.5,78.15-129.89,148.85-140,30.5-4.35,60.46,1.56,89.47,12.32A104.75,104.75,0,0,0,442,847.9a190.65,190.65,0,0,1,75.13-54.61c53.88-21.36,117.58-16.13,167.25,13.67,14.74,8.85,28.25,19.67,41.3,31.19,37.12,32.71,70.48,71,117.22,85.21,48.61,14.76,101.74-.06,151.55,9.89,73,14.61,126.67,81.22,147.87,152.59Q1143.88,1090.71,1145.14,1095.68Z"/><circle class="cls-7" cx="140.83" cy="330.62" r="75.75"/><circle class="cls-7" cx="1034.59" cy="559.98" r="26"/><path class="cls-9" d="M-96.35-42.69C-4-42.81,87.6-.26,147.1,70.42,198.69,131.71,225.27,210,269.53,276.78s119,125.35,197.76,110.68c54.08-10.07,97.06-53.2,122.49-102S626.23,182,639.84,128.67,670.76,21.27,706-21c44.67-53.54,117.2-82.44,186.45-74.3"/><path class="cls-9" d="M-65.41-46.07C21.19-46.17,107-6.29,162.8,60c48.37,57.46,73.28,130.85,114.77,193.45S389.12,370.92,463,357.17c50.69-9.45,91-49.88,114.82-95.6s34.17-97,46.93-147,29-100.68,62-140.28C728.6-75.9,796.59-103,861.51-95.35"/><path class="cls-9" d="M-34.47-49.44c80.82-.1,160.93,37.12,213,98.95,45.14,53.62,68.38,122.11,107.1,180.53s104.11,109.66,173,96.83c47.31-8.81,84.92-46.54,107.17-89.22s31.88-90.55,43.79-137.18,27-94,57.87-130.91c39.08-46.84,102.53-72.12,163.12-65"/><path class="cls-9" d="M-3.53-52.82c75-.09,149.42,34.47,197.75,91.87,41.9,49.79,63.49,113.38,99.44,167.62s96.66,101.82,160.63,89.9c43.92-8.18,78.84-43.21,99.5-82.83s29.6-84.08,40.66-127.37S619.55-.87,648.18-35.18c36.28-43.49,95.19-67,151.44-60.34"/><path class="cls-9" d="M27.42-56.2c69.25-.08,137.9,31.82,182.5,84.8,38.68,45.95,58.6,104.64,91.78,154.7s89.21,94,148.26,83c40.54-7.55,72.76-39.88,91.83-76.44S569.1,112.25,579.31,72.3s23.18-80.52,49.6-112.18c33.48-40.14,87.86-61.8,139.77-55.7"/><path class="cls-9" d="M386.66,1256.89c-15.29-55.79-26.44-116.58-5.07-170.33,28-70.43,105.68-109.87,180.93-118.9s151,5.9,226.58,11.64,156.5.78,218.79-42.4c86.38-59.88,114.73-176.57,192.68-247.09,65-58.8,163.1-78.18,245.57-48.52"/><path class="cls-9" d="M443.89,1256.89c-14.46-52.77-25-110.28-4.79-161.13,26.48-66.62,100-103.93,171.15-112.48s142.85,5.58,214.34,11,148,.73,207-40.11c81.72-56.65,108.54-167,182.27-233.74,61.49-55.62,154.3-74,232.31-45.91"/><path class="cls-9" d="M501.13,1256.89c-13.64-49.76-23.59-104-4.53-151.93,25-62.82,94.27-98,161.39-106.05s134.69,5.26,202.09,10.38,139.6.69,195.16-37.82c77-53.41,102.33-157.49,171.86-220.39,58-52.44,145.48-69.74,219-43.28"/><path class="cls-9" d="M558.36,1256.89c-12.81-46.75-22.15-97.69-4.25-142.73,23.46-59,88.56-92.06,151.61-99.63s126.54,4.94,189.86,9.76,131.14.65,183.33-35.53c72.38-50.18,96.14-148,161.46-207,54.46-49.27,136.67-65.52,205.77-40.67"/><path class="cls-9" d="M615.6,1256.89c-12-43.73-20.73-91.39-4-133.53,22-55.2,82.85-86.12,141.83-93.2s118.38,4.62,177.62,9.12,122.69.61,171.52-33.24c67.71-46.94,89.94-138.41,151-193.69,51-46.09,127.86-61.29,192.51-38"/><path class="cls-9" d="M986.39-431c5.63,40,40.9,70.3,78.76,84.47s79,15.91,119,22.23,81.31,18.67,108.64,48.46c48.62,53,34.37,135.39,42,206.92,11.49,108.22,84.56,207.77,184.37,251.16"/><path class="cls-9" d="M965.57-412.92c5.64,40,40.9,70.3,78.77,84.46s79,15.91,119,22.24,81.31,18.67,108.64,48.46c48.62,53,34.37,135.39,42,206.92,11.49,108.22,84.57,207.77,184.38,251.15"/><path class="cls-9" d="M944.76-394.85c5.64,40,40.9,70.3,78.77,84.46s79,15.91,119,22.24,81.31,18.67,108.64,48.46c48.63,53,34.38,135.39,42,206.91,11.49,108.23,84.57,207.77,184.38,251.16"/><path class="cls-9" d="M924-376.78c5.63,40,40.9,70.3,78.76,84.46s79,15.91,119,22.24,81.31,18.66,108.64,48.46c48.62,53,34.37,135.38,42,206.91,11.49,108.23,84.56,207.77,184.37,251.16"/></g></svg>