<svg id="Capa_1" data-name="Capa 1" xmlns="http://www.w3.org/2000/svg" viewBox="0 0 733 728.59"><defs><style>.cls-1{fill:#ffb8b8;}.cls-2{fill:#fff;}.cls-3{opacity:0.2;isolation:isolate;}.cls-4{fill:#e6e6e6;}.cls-5{fill:#f2f2f2;}.cls-6{fill:#3f3d56;}</style></defs><title>imagen demostracio segundo vh</title><path class="cls-1" d="M227,520.42A10,10,0,0,0,213,517.57a11.39,11.39,0,0,0-1.39,1.1l-31.75-16.39,2,18.47,29.85,12.73A10.11,10.11,0,0,0,227,520.42Z"/><path class="cls-2" d="M198.73,527.85a4.51,4.51,0,0,1-3.67,0L164.9,514.8a46.35,46.35,0,0,1-23.46-22.69l-15.86-33.47a14.5,14.5,0,1,1,22.88-17.81l0,0,27.88,51.71L202.09,512a4.51,4.51,0,0,1,1.59,4.92l-2.53,8.16a4.45,4.45,0,0,1-1.52,2.21A4.62,4.62,0,0,1,198.73,527.85Z"/><circle class="cls-1" cx="124.89" cy="394.71" r="24.56"/><polygon class="cls-1" points="134.83 716.91 147.09 716.91 152.93 669.62 134.83 669.62 134.83 716.91"/><path d="M170.74,728.29H132.21V713.41h23.64a14.89,14.89,0,0,1,14.89,14.89Z"/><polygon class="cls-1" points="94.83 716.91 107.09 716.91 112.92 669.62 94.83 669.62 94.83 716.91"/><path d="M130.74,728.29H92.21V713.41h23.64a14.89,14.89,0,0,1,14.89,14.89Z"/><path d="M90.55,703.37a4.51,4.51,0,0,1-1.07-3.56l21.46-161,53.33,9,5.69-3.41L155.24,697.21a4.51,4.51,0,0,1-4.09,4L135,702.52a4.5,4.5,0,0,1-4.86-4.11,4.42,4.42,0,0,1,0-.63L134.31,625a.49.49,0,0,0-.46-.53.51.51,0,0,0-.52.37l-20.68,76.7a4.5,4.5,0,0,1-4.34,3.33H93.94A4.5,4.5,0,0,1,90.55,703.37Z"/><path class="cls-2" d="M127.48,550.1a3.51,3.51,0,0,0-4.51-.19l-10.66,8.29a4.49,4.49,0,0,1-6.31-.78,4.35,4.35,0,0,1-.78-1.53C100,537.58,88.14,491.48,91.06,459c1.65-18.39,17.54-32.37,35.41-31.2,12.21.81,20.25,7.86,23.88,20.94,8.92,32.13,18.73,91.05,20.6,102.53a4.46,4.46,0,0,1-2.13,4.59,33,33,0,0,1-16.69,4.7C145,560.59,136.47,558.11,127.48,550.1Z"/><path class="cls-1" d="M131.51,561.52a10.07,10.07,0,0,0-9.21-10.84,10.46,10.46,0,0,0-1.77,0l-14.87-32.5L95.82,534l15.63,28.44a10.11,10.11,0,0,0,20.06-.87Z"/><path class="cls-2" d="M104.72,550a4.5,4.5,0,0,1-2.92-2.24L86.15,518.81a46.37,46.37,0,0,1-4.46-32.34l8.18-36.12a14.5,14.5,0,0,1,29,.11v0l-10,57.9,8.25,31.18a4.52,4.52,0,0,1-1.78,4.85l-7,4.86a4.52,4.52,0,0,1-3.6.68Z"/><polygon class="cls-3" points="116.87 474.91 107.87 512.91 120.87 544.91 111.87 513.91 116.87 474.91"/><path d="M122.07,419.29c-9,.2-17.91-5.4-22-13.83a26.83,26.83,0,0,1,2.42-26.74,24,24,0,0,1,24.06-9.26c5-3.15,10.71-5.28,16.49-4.74s11.48,4.14,13.64,9.77-.16,13.07-5.53,15.37c-3.44,1.47-7.33.75-11,.16s-7.68-1-10.87,1-4.64,7.31-1.77,9.79a10.68,10.68,0,0,1,2.82,11.37C128.92,416.09,125,419.22,122.07,419.29Z"/><path class="cls-4" d="M592.43,173h-4V63.4A63.4,63.4,0,0,0,525,0H293a63.41,63.41,0,0,0-63.41,63.4v601A63.41,63.41,0,0,0,293,727.78H525a63.4,63.4,0,0,0,63.4-63.4V250.92h4Z"/><path class="cls-2" d="M574.94,63.84V663.93a47.35,47.35,0,0,1-47.35,47.35H294.39A47.35,47.35,0,0,1,247,663.93V63.84a47.35,47.35,0,0,1,47.35-47.35h28.29a22.5,22.5,0,0,0,20.83,31h133a22.51,22.51,0,0,0,20.83-31h30.29A47.35,47.35,0,0,1,574.94,63.84Z"/><path class="cls-5" d="M547.29,352a12.13,12.13,0,0,0-11.39-8H286.08a12.1,12.1,0,0,0-12.1,12.1h0v191.7a12.12,12.12,0,0,0,12.1,12.11H535.9A12.12,12.12,0,0,0,548,547.79V356.09A12.19,12.19,0,0,0,547.29,352Z"/><path class="cls-2" d="M547.29,111.19a12.13,12.13,0,0,0-11.39-8H286.08a12.1,12.1,0,0,0-12.1,12.1h0V307a12.12,12.12,0,0,0,12.1,12.1H535.9A12.12,12.12,0,0,0,548,307V115.29A12.15,12.15,0,0,0,547.29,111.19Z"/><path class="cls-6" d="M547.29,111.19a12.13,12.13,0,0,0-11.39-8H286.08a12.1,12.1,0,0,0-12.1,12.1h0V307a12.12,12.12,0,0,0,12.1,12.1H535.9A12.12,12.12,0,0,0,548,307V115.29A12.15,12.15,0,0,0,547.29,111.19ZM546.58,307a10.7,10.7,0,0,1-10.68,10.68H286.08A10.7,10.7,0,0,1,275.4,307V115.29a10.71,10.71,0,0,1,10.68-10.69H535.9a10.71,10.71,0,0,1,10.68,10.69Z"/><path class="cls-4" d="M528.73,129V262.84a3.36,3.36,0,0,1-3.36,3.37H298.13a2.63,2.63,0,0,1-.49,0,3.37,3.37,0,0,1-2.88-3.33V129a3.36,3.36,0,0,1,3.36-3.37H525.36a3.36,3.36,0,0,1,3.37,3.36h0Z"/><circle class="cls-2" cx="352.04" cy="175.63" r="29.57"/><path d="M444.75,266.74h-145a2.46,2.46,0,0,1-.54,0l68.6-118.82a4.8,4.8,0,0,1,8.36,0l46,79.74,2.2,3.81Z"/><polygon class="cls-3" points="444.75 266.75 395.23 266.75 419.54 231.43 421.29 228.89 422.17 227.62 424.37 231.43 444.75 266.75"/><path d="M525.52,266.74H400.06l24.31-35.31,1.75-2.54,31.68-46c2.08-3,7.07-3.2,9.52-.57a6.26,6.26,0,0,1,.45.57Z"/><path class="cls-2" d="M482.71,363.19a12.15,12.15,0,0,0-11.4-8H221.5a12.11,12.11,0,0,0-12.11,12.1h0V559a12.12,12.12,0,0,0,12.11,12.1H471.31A12.12,12.12,0,0,0,483.42,559V367.29A12.15,12.15,0,0,0,482.71,363.19Z"/><path class="cls-6" d="M482.71,363.19a12.15,12.15,0,0,0-11.4-8H221.5a12.11,12.11,0,0,0-12.11,12.1h0V559a12.12,12.12,0,0,0,12.11,12.1H471.31A12.12,12.12,0,0,0,483.42,559V367.29A12.15,12.15,0,0,0,482.71,363.19ZM482,559a10.68,10.68,0,0,1-10.68,10.68H221.5A10.69,10.69,0,0,1,210.82,559V367.29A10.7,10.7,0,0,1,221.5,356.6H471.31A10.69,10.69,0,0,1,482,367.29Z"/><path class="cls-4" d="M464.15,381V514.84a3.37,3.37,0,0,1-3.37,3.37H233.54a2.59,2.59,0,0,1-.48,0,3.37,3.37,0,0,1-2.89-3.33V381a3.37,3.37,0,0,1,3.37-3.37H460.78a3.36,3.36,0,0,1,3.37,3.36h0Z"/><circle class="cls-2" cx="287.45" cy="427.63" r="29.57"/><path d="M380.17,518.74h-145a2.5,2.5,0,0,1-.55,0l68.6-118.82a4.79,4.79,0,0,1,8.36,0l46,79.74,2.21,3.81Z"/><polygon class="cls-3" points="380.17 518.75 330.65 518.75 354.96 483.43 356.71 480.89 357.58 479.62 359.79 483.43 380.17 518.75"/><path d="M460.93,518.74H335.48l24.31-35.31,1.75-2.54,31.68-46c2.07-3,7.07-3.2,9.51-.57a6.36,6.36,0,0,1,.46.57Z"/><path class="cls-2" d="M370.84,643.59h-72a18.5,18.5,0,0,1,0-37h72a18.5,18.5,0,1,1,0,37Z"/><path class="cls-5" d="M513.92,643.59h-72a18.5,18.5,0,1,1,0-37h72a18.5,18.5,0,0,1,0,37Z"/></svg>